<?xml version="1.0" standalone="no"?>
<!DOCTYPE svg PUBLIC "-//W3C//DTD SVG 20010904//EN"
        "http://www.w3.org/TR/2001/REC-SVG-20010904/DTD/svg10.dtd">
<svg version="1.0" xmlns="http://www.w3.org/2000/svg"
     width="1024.000000pt" height="1024.000000pt" viewBox="0 0 1024.000000 1024.000000"
     preserveAspectRatio="xMidYMid meet">

    <g transform="translate(0.000000,1024.000000) scale(0.100000,-0.100000)"
       fill="currentColor" stroke="none">
        <path d="M4785 10009 c-371 -22 -848 -118 -1243 -248 -875 -290 -1689 -858
-2258 -1576 -472 -596 -779 -1230 -949 -1963 -97 -420 -127 -691 -126 -1122 1
-319 14 -490 62 -780 56 -338 196 -820 328 -1130 316 -738 830 -1411 1461
-1912 744 -591 1680 -959 2650 -1043 316 -28 792 -14 1079 30 564 88 1076 250
1546 490 207 106 301 162 515 306 522 351 930 757 1297 1289 384 557 648 1203
777 1902 74 399 108 918 71 1057 -29 109 -131 166 -244 136 -64 -16 -116 -62
-132 -115 -6 -19 -15 -96 -20 -170 -21 -302 -80 -621 -166 -900 -265 -861
-789 -1620 -1488 -2160 -38 -30 -113 -90 -165 -135 -388 -331 -864 -599 -1373
-774 -696 -239 -1514 -273 -2277 -95 -466 109 -1014 359 -1420 648 -367 261
-780 683 -1020 1041 -245 368 -430 754 -554 1161 -209 682 -219 1549 -27 2248
295 1070 981 1958 1941 2511 382 220 796 379 1210 464 306 62 440 75 825 75
356 1 433 -4 690 -45 240 -37 422 -83 660 -166 515 -180 968 -437 1350 -766
91 -79 412 -394 425 -418 7 -12 -23 -38 -154 -130 l-162 -115 -134 139 c-533
553 -1196 912 -1963 1062 -606 118 -1169 85 -1787 -105 -191 -58 -328 -113
-515 -205 -649 -319 -1157 -787 -1533 -1411 -345 -573 -541 -1319 -518 -1976
29 -857 341 -1662 895 -2308 319 -373 782 -721 1236 -928 349 -159 793 -278
1205 -324 162 -17 522 -14 710 6 833 91 1594 449 2189 1030 491 481 818 1055
989 1741 79 314 112 563 87 654 -19 72 -64 117 -133 135 -102 27 -210 -28
-233 -119 -63 -251 -219 -623 -364 -870 -184 -314 -374 -556 -646 -820 -332
-323 -769 -621 -1144 -780 -637 -270 -1401 -299 -2048 -76 -876 301 -1539 969
-1837 1851 -178 527 -187 1193 -23 1740 67 224 190 493 320 701 292 465 695
828 1188 1069 260 127 453 193 710 243 202 40 342 52 575 52 368 -1 675 -54
985 -170 403 -151 743 -366 1044 -662 l115 -113 -230 -163 c-127 -90 -235
-167 -242 -171 -7 -4 -42 22 -88 66 -207 199 -515 387 -790 482 -281 96 -532
140 -794 139 -502 -2 -976 -162 -1382 -466 -209 -156 -378 -335 -527 -558
-298 -447 -440 -1028 -377 -1539 14 -113 21 -151 52 -280 120 -499 400 -946
784 -1252 307 -243 601 -382 996 -468 487 -106 1003 -41 1469 184 469 227 827
582 1059 1050 84 169 100 226 81 297 -28 104 -129 162 -234 134 -44 -11 -66
-29 -203 -167 -156 -158 -253 -239 -413 -345 -315 -210 -750 -380 -1080 -424
-120 -16 -444 -6 -545 16 -148 33 -339 112 -485 200 -230 139 -445 378 -577
640 -41 80 -98 241 -121 339 -19 79 -21 122 -22 326 0 187 4 253 18 323 36
180 142 416 260 584 227 319 617 563 1002 624 122 20 420 17 535 -4 237 -45
537 -186 688 -323 l43 -39 -258 -181 -257 -181 -61 29 c-98 45 -243 78 -349
78 -151 0 -332 -53 -446 -130 -340 -230 -461 -627 -309 -1013 48 -121 173
-274 286 -349 97 -65 141 -85 251 -116 132 -36 296 -38 422 -3 233 64 418 211
521 416 42 84 89 238 89 291 0 30 5 33 148 102 156 75 718 343 1067 510 394
187 1050 500 1145 545 52 25 160 76 240 115 80 38 388 185 685 326 377 180
550 267 573 290 47 46 65 118 47 187 -8 28 -20 58 -28 68 -15 17 -553 914
-581 968 -45 89 -147 137 -237 113 -24 -7 -87 -43 -141 -81 l-98 -70 -37 43
c-273 307 -462 484 -756 705 -932 703 -2095 1052 -3272 982z"/>
    </g>
</svg>
