<?xml version="1.0" standalone="no"?>
<!DOCTYPE svg PUBLIC "-//W3C//DTD SVG 20010904//EN"
        "http://www.w3.org/TR/2001/REC-SVG-20010904/DTD/svg10.dtd">
<svg version="1.0" xmlns="http://www.w3.org/2000/svg"
     width="1024.000000pt" height="1024.000000pt" viewBox="0 0 1024.000000 1024.000000"
     preserveAspectRatio="xMidYMid meet">

    <g transform="translate(0.000000,1024.000000) scale(0.100000,-0.100000)"
       fill="currentColor" stroke="none">
        <path d="M1977 9829 c-99 -23 -206 -112 -250 -207 l-22 -47 -5 -1555 -5 -1555
-175 -6 c-184 -6 -203 -10 -311 -64 -116 -59 -229 -213 -258 -353 -15 -75 -15
-2889 0 -2964 29 -140 142 -294 258 -353 108 -54 127 -58 311 -64 l175 -6 5
-990 5 -990 26 -56 c52 -110 151 -186 273 -208 78 -14 6133 -15 6219 -1 129
21 225 93 281 210 l31 65 3 988 2 987 153 0 c105 0 171 5 212 15 175 46 315
185 372 370 17 57 18 131 18 1520 l0 1460 -22 70 c-43 133 -137 246 -258 307
-94 48 -109 51 -295 57 l-175 6 -5 585 c-4 523 -7 588 -22 615 -9 17 -432 505
-940 1085 -692 789 -933 1059 -961 1073 -36 16 -166 17 -2320 16 -1284 -1
-2298 -5 -2320 -10z m4373 -1321 c0 -915 1 -965 19 -1003 22 -48 54 -79 103
-100 33 -13 141 -15 868 -15 l830 0 0 -465 0 -465 -3053 2 -3052 3 -3 1503 -2
1502 2145 0 2145 0 0 -962z m-1523 -2629 c263 -29 487 -129 662 -294 178 -168
293 -382 353 -658 19 -88 22 -131 22 -322 0 -242 -13 -335 -74 -517 -118 -352
-366 -605 -712 -723 -145 -50 -219 -60 -443 -59 -193 0 -218 2 -306 26 -458
124 -753 459 -846 961 -25 133 -24 427 1 562 52 278 173 521 346 695 254 253
614 372 997 329z m3003 -24 c202 -24 438 -89 427 -119 -2 -6 -28 -103 -57
-216 -29 -113 -56 -208 -59 -212 -4 -4 -44 6 -91 22 -162 55 -234 65 -470 65
-191 -1 -224 -3 -295 -23 -325 -91 -519 -325 -555 -674 -28 -270 45 -523 198
-689 144 -155 304 -225 543 -236 112 -5 260 6 305 24 12 4 14 52 14 269 l0
264 -195 0 -195 0 0 220 0 220 470 0 470 0 -2 -662 -3 -662 -75 -23 c-209 -64
-451 -102 -686 -110 -410 -13 -731 65 -969 235 -74 53 -190 168 -245 243 -97
130 -168 301 -206 494 -27 136 -25 405 4 551 68 345 237 605 513 792 166 112
429 204 666 231 115 14 362 12 493 -4z m-5450 -1030 l0 -1015 500 0 500 0 0
-240 0 -240 -785 0 -785 0 0 1255 0 1255 285 0 285 0 0 -1015z m5790 -2733 c0
-307 3 -708 7 -890 l6 -332 -3061 0 -3062 0 0 890 0 890 3055 0 3055 0 0 -558z"/>
        <path d="M4605 5433 c-249 -36 -428 -220 -504 -518 -72 -286 -46 -616 66 -840
109 -215 282 -328 503 -328 154 0 267 47 376 158 127 128 205 329 224 575 34
457 -141 830 -436 928 -61 21 -176 33 -229 25z"/>
    </g>
</svg>
