<?xml version="1.0" standalone="no"?>
<!DOCTYPE svg PUBLIC "-//W3C//DTD SVG 20010904//EN"
 "http://www.w3.org/TR/2001/REC-SVG-20010904/DTD/svg10.dtd">
<svg version="1.0" xmlns="http://www.w3.org/2000/svg"
 width="900.000000pt" height="1234.000000pt" viewBox="0 0 900.000000 1234.000000"
 preserveAspectRatio="xMidYMid meet">

<g transform="translate(0.000000,1234.000000) scale(0.100000,-0.100000)"
fill="currentColor" stroke="none">
<path d="M6814 12313 c25 -90 44 -289 56 -598 14 -337 33 -715 50 -985 12
-188 37 -486 49 -595 5 -44 17 -147 25 -230 9 -82 21 -184 26 -225 6 -41 15
-118 20 -170 6 -52 12 -104 15 -115 4 -18 17 -127 30 -242 l4 -33 -127 -2
c-70 -1 -302 -2 -517 -2 -288 -1 -404 -5 -445 -15 -140 -33 -183 -56 -267
-139 -41 -42 -70 -90 -150 -247 -89 -176 -113 -216 -113 -184 0 23 -69 157
-98 191 -35 39 -109 78 -186 97 -76 19 -77 8 -14 -121 57 -115 85 -211 73
-248 -10 -30 -27 -20 -51 31 -28 56 -63 89 -108 99 -46 10 -77 -12 -111 -80
-32 -63 -73 -80 -193 -80 -121 0 -159 24 -187 120 -11 38 -43 60 -87 60 -20 0
-35 -11 -61 -48 -20 -26 -41 -60 -48 -75 -7 -16 -20 -27 -31 -27 -17 0 -19 5
-13 33 15 73 98 225 167 305 15 18 28 42 28 52 0 16 -7 20 -38 20 -55 0 -140
-27 -189 -61 -46 -32 -102 -109 -129 -179 -9 -25 -20 -49 -24 -53 -5 -5 -25
22 -46 60 -109 198 -171 303 -203 343 -41 52 -52 61 -64 53 -5 -3 -57 -12
-116 -19 -79 -10 -285 -13 -811 -14 -784 0 -735 -4 -766 68 -8 20 -24 71 -35
112 -19 71 -20 104 -20 720 1 355 3 665 6 690 3 25 10 254 16 510 13 586 14
636 24 910 7 198 6 227 -8 238 -13 11 -18 9 -31 -10 -19 -27 -38 -87 -60 -188
-9 -41 -21 -93 -26 -115 -15 -67 -93 -430 -106 -495 -3 -14 -14 -65 -25 -115
-12 -49 -23 -99 -25 -110 -3 -11 -11 -51 -19 -90 -7 -38 -30 -144 -50 -235
-20 -91 -38 -177 -40 -192 -2 -15 -15 -83 -28 -150 -23 -113 -60 -297 -71
-358 -12 -64 -49 -252 -63 -320 -8 -41 -19 -95 -23 -120 -14 -79 -18 -100 -80
-410 -54 -269 -71 -362 -72 -380 -1 -26 9 -41 53 -75 28 -22 70 -56 94 -75 24
-19 97 -79 163 -132 65 -54 128 -98 138 -98 11 0 50 16 88 35 75 38 102 42
156 23 26 -9 230 -14 775 -18 841 -6 791 -1 841 -87 22 -37 83 -237 84 -274 0
-3 -50 27 -112 67 -135 90 -230 124 -344 124 -41 0 -96 -5 -122 -11 -26 -6
-92 -21 -147 -34 -55 -13 -158 -38 -230 -55 -71 -17 -166 -39 -210 -50 -44
-11 -152 -36 -240 -56 -606 -138 -587 -134 -970 -198 -144 -25 -213 -32 -220
-25 -6 6 -13 108 -17 252 -6 227 -3 290 22 487 5 36 14 106 19 155 6 50 14
106 16 125 3 19 10 75 15 125 10 91 13 118 26 210 4 28 8 61 9 75 2 14 8 66
14 115 7 50 19 149 27 220 8 72 19 162 24 200 5 39 16 133 25 210 9 77 18 154
20 170 11 94 26 210 35 285 6 47 17 139 25 205 18 158 34 290 40 329 3 17 9
69 15 116 5 47 14 125 20 174 12 105 15 128 34 306 8 74 13 137 10 139 -9 9
-38 -15 -60 -47 -29 -43 -104 -262 -302 -887 -244 -768 -403 -1457 -502 -2170
-7 -44 -16 -109 -21 -145 -10 -73 -39 -297 -44 -349 -2 -19 -6 -50 -10 -70 -3
-20 -7 -54 -10 -76 -2 -22 -9 -78 -15 -125 -5 -47 -13 -110 -16 -140 -7 -64
-31 -40 201 -200 83 -57 175 -121 205 -142 45 -32 143 -100 238 -165 17 -11
72 10 277 107 164 77 394 166 570 220 152 47 553 144 640 156 22 2 72 10 110
16 39 5 154 12 256 15 161 4 199 2 283 -16 137 -29 357 -138 386 -190 14 -27
13 -87 -2 -98 -22 -16 -270 -48 -498 -63 -388 -25 -423 -36 -555 -160 -44 -42
-109 -102 -145 -134 -36 -33 -148 -138 -250 -235 -413 -391 -574 -538 -731
-662 -90 -72 -180 -144 -199 -159 -19 -15 -163 -130 -320 -255 -274 -218 -318
-253 -401 -320 -184 -149 -244 -192 -292 -207 -80 -26 -121 -23 -188 14 -32
18 -60 30 -63 28 -2 -3 -1 -36 4 -75 5 -38 16 -131 24 -205 9 -74 21 -164 25
-200 5 -36 14 -101 20 -145 31 -226 46 -322 85 -535 14 -74 28 -153 32 -175 4
-22 8 -42 9 -45 1 -3 5 -21 9 -40 116 -537 227 -870 476 -1435 62 -140 100
-226 176 -405 118 -278 318 -640 352 -640 16 0 72 78 72 100 0 5 -41 119 -91
252 -197 524 -319 932 -349 1163 -13 105 -27 271 -35 420 -17 334 -48 818 -67
1040 -6 83 -12 247 -12 365 l-1 215 29 62 c27 60 92 130 237 256 70 61 315
284 409 372 47 44 143 134 215 200 71 66 175 163 230 215 266 251 412 388 549
516 82 76 203 190 267 252 117 111 139 126 202 138 85 15 148 26 207 35 36 5
106 16 155 24 50 8 108 17 130 20 22 2 54 8 70 11 28 6 29 6 15 -12 -29 -35
-164 -188 -215 -244 -27 -31 -111 -125 -185 -210 -74 -84 -162 -183 -195 -220
-33 -37 -85 -97 -115 -133 -30 -37 -64 -70 -76 -73 -11 -3 -49 1 -85 10 -35 8
-68 11 -73 6 -12 -12 -41 -135 -76 -320 -49 -264 -77 -754 -87 -1545 -6 -456
2 -613 68 -1265 70 -706 71 -712 140 -1025 95 -423 211 -741 436 -1189 158
-315 309 -558 500 -803 35 -46 68 -83 72 -83 9 0 101 114 101 125 0 4 -45 86
-101 182 -299 519 -521 1116 -629 1692 -23 126 -39 287 -45 456 -6 194 -17
409 -40 795 -26 441 -16 1013 25 1405 43 407 93 624 207 908 l56 139 -21 41
c-45 93 -50 157 -18 267 17 57 104 199 176 285 108 131 310 272 440 309 71 20
190 35 190 24 0 -4 -30 -67 -66 -139 -150 -300 -207 -487 -207 -674 1 -153 25
-313 83 -565 108 -463 157 -617 395 -1257 171 -460 169 -457 219 -335 37 91
74 152 91 152 20 0 51 -63 71 -144 19 -75 40 -102 58 -72 6 10 21 31 34 47 20
24 44 73 163 326 16 34 29 65 29 68 0 4 11 30 24 58 13 29 29 70 36 92 7 22
16 45 21 50 10 13 50 119 99 260 20 61 62 162 93 225 61 127 90 205 104 285 7
42 26 122 39 165 18 59 88 423 109 569 11 73 16 153 13 220 -4 93 -8 115 -37
181 -18 41 -59 138 -91 215 -32 77 -76 180 -99 228 -23 49 -41 91 -41 94 0 7
102 -6 185 -24 88 -19 230 -87 315 -152 65 -49 251 -250 302 -326 46 -68 131
-255 136 -300 6 -54 -38 -157 -74 -174 -30 -13 -30 -15 2 -148 29 -123 78
-330 99 -418 33 -135 55 -400 55 -648 -1 -236 -15 -707 -25 -817 -8 -87 -44
-366 -60 -470 -9 -52 -22 -151 -30 -220 -9 -69 -22 -174 -30 -235 -8 -60 -17
-144 -20 -185 -3 -41 -10 -88 -15 -105 -5 -16 -16 -75 -25 -130 -9 -55 -27
-152 -41 -215 -13 -63 -29 -135 -34 -160 -60 -301 -140 -650 -165 -725 -13
-38 -33 -106 -45 -150 -24 -92 -106 -288 -191 -455 -60 -120 -165 -253 -260
-332 -24 -20 -64 -55 -88 -77 l-43 -41 28 -57 c42 -84 59 -83 181 9 154 115
208 163 257 227 99 128 249 394 379 671 27 57 64 167 102 305 40 145 205 737
240 860 18 66 50 177 69 248 20 70 76 328 126 575 49 246 98 485 110 532 43
181 69 360 130 924 27 243 50 650 50 883 0 171 -3 199 -46 450 -48 284 -59
341 -68 350 -2 3 -39 -6 -81 -20 -42 -14 -81 -24 -88 -21 -7 2 -28 35 -48 72
-136 251 -399 679 -524 853 l-55 77 158 8 c288 16 406 7 497 -39 54 -27 178
-154 250 -257 94 -134 187 -251 360 -450 210 -241 446 -524 750 -899 169 -208
275 -381 324 -528 50 -147 93 -450 108 -748 9 -181 -58 -712 -146 -1155 -17
-85 -51 -262 -76 -394 -46 -239 -105 -454 -188 -687 -25 -68 -61 -176 -81
-239 -21 -63 -62 -165 -93 -227 -30 -62 -52 -117 -48 -123 4 -7 22 -18 40 -26
l33 -13 81 82 c95 97 173 194 219 270 96 158 283 642 413 1067 55 178 224 865
258 1045 98 527 135 855 135 1210 1 235 -2 291 -23 433 -13 89 -27 162 -31
162 -4 0 -37 -20 -73 -44 -82 -55 -125 -69 -192 -64 -106 9 -46 -56 -1439
1547 -374 431 -400 459 -446 470 -19 5 -111 12 -205 15 -527 18 -540 19 -563
34 -12 8 -25 25 -28 38 -18 71 61 135 252 201 74 25 91 27 249 27 347 2 1111
-20 1259 -35 113 -12 172 -30 516 -163 184 -71 248 -91 256 -83 6 7 61 91 121
187 60 96 144 229 185 295 l76 120 -19 100 c-123 632 -141 719 -248 1185 -98
433 -305 1234 -425 1645 -59 204 -154 490 -206 620 -77 194 -182 357 -279 434
-47 37 -70 32 -52 -10 33 -80 83 -229 101 -300 83 -323 237 -1237 260 -1542
17 -224 48 -618 95 -1222 61 -767 63 -813 38 -843 -46 -58 -121 -51 -1016 98
-394 66 -732 120 -750 120 -34 0 -105 -38 -279 -149 -54 -34 -118 -70 -143
-81 l-45 -19 0 27 c0 36 86 230 136 309 42 66 76 91 170 123 97 34 168 30 783
-41 265 -31 359 -39 370 -31 9 7 57 36 107 66 170 103 193 136 194 277 0 48
-5 111 -10 140 -6 30 -17 101 -25 159 -8 58 -20 137 -25 175 -6 39 -13 86 -16
105 -2 19 -9 62 -15 95 -5 33 -14 89 -20 125 -16 102 -58 326 -79 425 -73 333
-122 535 -285 1170 -37 143 -80 312 -95 375 -118 477 -142 550 -188 550 -17 0
-22 -4 -18 -17z"/>
</g>
</svg>
