<?xml version="1.0" standalone="no"?>
<!DOCTYPE svg PUBLIC "-//W3C//DTD SVG 20010904//EN"
 "http://www.w3.org/TR/2001/REC-SVG-20010904/DTD/svg10.dtd">
<svg version="1.0" xmlns="http://www.w3.org/2000/svg"
 width="512.000000pt" height="512.000000pt" viewBox="0 0 512.000000 512.000000"
 preserveAspectRatio="xMidYMid meet">

<g transform="translate(0.000000,512.000000) scale(0.100000,-0.100000)"
fill="currentColor" stroke="none">
<path d="M2410 4665 l0 -455 150 0 150 0 0 455 0 455 -150 0 -150 0 0 -455z"/>
<path d="M757 4362 l-107 -107 318 -318 317 -317 108 108 107 107 -318 318
-317 317 -108 -108z"/>
<path d="M3937 4152 l-317 -317 108 -108 107 -107 318 318 317 317 -108 108
-107 107 -318 -318z"/>
<path d="M2386 3899 c-309 -42 -580 -181 -797 -406 -144 -149 -238 -301 -303
-491 -56 -160 -70 -253 -70 -442 0 -192 15 -285 73 -449 159 -451 539 -777
1021 -878 115 -24 381 -24 500 0 417 83 768 349 957 726 49 98 95 231 120 351
25 120 24 382 -1 505 -55 263 -169 483 -350 672 -198 208 -441 343 -717 398
-93 19 -341 27 -433 14z"/>
<path d="M0 2560 l0 -150 455 0 455 0 0 150 0 150 -455 0 -455 0 0 -150z"/>
<path d="M4210 2560 l0 -150 455 0 455 0 0 150 0 150 -455 0 -455 0 0 -150z"/>
<path d="M967 1182 l-317 -317 108 -108 107 -107 318 318 317 317 -108 108
-107 107 -318 -318z"/>
<path d="M3727 1392 l-107 -107 318 -318 317 -317 108 108 107 107 -318 318
-317 317 -108 -108z"/>
<path d="M2410 455 l0 -455 150 0 150 0 0 455 0 455 -150 0 -150 0 0 -455z"/>
</g>
</svg>
